<svg xmlns="http://www.w3.org/2000/svg" width="12" height="12" fill="none" viewBox="0 0 12 12"><path fill="#414141" fill-rule="evenodd" d="M2.305 11.528c-.3-.22-.363-.594-.202-1.056L3.13 7.448.503 5.588c-.405-.288-.592-.62-.462-.98.12-.353.462-.523.956-.517l3.225.025.982-3.045c.156-.476.42-.738.794-.738.38 0 .644.262.8.738l.982 3.045L11 4.091c.499-.006.842.164.961.517.125.36-.057.692-.462.98l-2.633 1.86 1.033 3.024c.161.462.099.836-.202 1.056-.307.23-.68.164-1.091-.133L5.998 9.503l-2.607 1.892c-.405.297-.78.364-1.086.133" clip-rule="evenodd"/></svg>