<svg xmlns="http://www.w3.org/2000/svg" width="16" height="16" fill="none" viewBox="0 0 16 16"><path fill="#414141" fill-rule="evenodd" d="m13.288 14.31.518-10.466h.75a.55.55 0 0 0 .555-.537.554.554 0 0 0-.555-.544h-3.278V1.69C11.278.666 10.55 0 9.395 0H6.59C5.434 0 4.714.666 4.714 1.69v1.073H1.451c-.3 0-.562.25-.562.544s.262.537.562.537h.75l.518 10.474C2.771 15.348 3.484 16 4.564 16h6.879c1.072 0 1.793-.659 1.845-1.69M5.914 1.761c0-.408.315-.694.765-.694h2.633c.458 0 .773.286.773.694v1.002h-4.17zM4.677 14.926a.76.76 0 0 1-.78-.73L3.372 3.844h9.234l-.495 10.352c-.023.422-.338.73-.78.73zm5.55-1.26c.248 0 .435-.193.443-.465l.225-7.56c.007-.272-.188-.472-.443-.472-.232 0-.427.207-.435.465l-.225 7.567a.437.437 0 0 0 .435.465m-4.448 0a.437.437 0 0 0 .435-.465L5.99 5.634c-.007-.258-.21-.465-.442-.465-.255 0-.443.2-.435.472l.232 7.56c.008.272.188.465.435.465m2.679-.465c0 .258-.21.465-.45.465a.464.464 0 0 1-.458-.465V5.634c0-.258.21-.465.457-.465s.45.207.45.465z" clip-rule="evenodd"/></svg>