<svg xmlns="http://www.w3.org/2000/svg" width="32" height="32" fill="none" viewBox="0 0 32 32"><path fill="#7b7b7b" fill-rule="evenodd" d="M7.625 24.02h4.67v-2.015h-4.67c-3.22 0-5.576-2.077-5.576-4.616 0-2.39 1.528-4.366 4.239-4.366.165 0 .242-.1.242-.263 0-3.768 2.708-4.863 5.286-4.194l.149.04c.153.05.242.025.318-.112 1.235-2.164 3.132-3.953 6.428-3.953 4.175 0 7.065 3.252 7.281 6.98.025.563-.013 1.239-.064 1.827-.01.14.035.233.144.272l.06.016c2.317.5 3.819 2.164 3.819 4.303 0 2.34-2.1 4.066-4.8 4.066h-5.345v2.014h5.346c3.844 0 6.848-2.64 6.848-6.08 0-2.49-1.54-4.779-4.035-5.805.026-5.58-4.048-9.608-9.254-9.608-3.462 0-5.906 1.814-7.433 4.004-2.902-.763-6.556 1.438-6.607 4.954C1.782 11.934 0 14.449 0 17.389c0 3.665 3.271 6.63 7.625 6.63m8.426 5.454c-.547 0-1.006-.438-1.006-.964V16.776l.077-2.315-.866.889-1.922 1.889a1.04 1.04 0 0 1-.7.3c-.535 0-.917-.363-.917-.876 0-.263.09-.488.293-.663l4.303-3.953c.267-.238.483-.325.738-.325.267 0 .47.087.738.325L21.091 16c.204.175.306.4.306.663 0 .513-.407.876-.93.876-.254 0-.496-.113-.7-.3l-1.921-1.89-.866-.888.09 2.315V28.51c0 .526-.472.964-1.02.964" clip-rule="evenodd"/></svg>